<svg xmlns="http://www.w3.org/2000/svg" version="1.1" xmlns:xlink="http://www.w3.org/1999/xlink" xmlns:svgjs="http://svgjs.dev/svgjs" viewBox="0 0 10.861113583889678 2.433933733980767"><g transform="matrix(1,0,0,1,0.4042312962028456,0.6197024377779213)"><g><path d=" M 0.20400000000000001 0.05999999999999983 L 0.7065 0.05999999999999983 Q 0.7455 0.05999999999999983 0.77175 0.08474999999999988 Q 0.798 0.10949999999999993 0.798 0.14849999999999985 Q 0.798 0.18599999999999983 0.77175 0.20924999999999983 Q 0.7455 0.23249999999999982 0.7065 0.23249999999999982 L 0.28650000000000003 0.23249999999999982 L 0.3 0.20699999999999985 L 0.3 0.49949999999999983 L 0.28800000000000003 0.4874999999999998 L 0.639 0.4874999999999998 Q 0.678 0.4874999999999998 0.70425 0.5122499999999999 Q 0.7305 0.5369999999999998 0.7305 0.5759999999999998 Q 0.7305 0.6134999999999999 0.70425 0.6367499999999999 Q 0.678 0.6599999999999999 0.639 0.6599999999999999 L 0.2925 0.6599999999999999 L 0.3 0.6479999999999999 L 0.3 0.9509999999999998 L 0.28800000000000003 0.9374999999999999 L 0.7065 0.9374999999999999 Q 0.7455 0.9374999999999999 0.77175 0.9637499999999999 Q 0.798 0.9899999999999999 0.798 1.0245 Q 0.798 1.0619999999999998 0.77175 1.0859999999999999 Q 0.7455 1.1099999999999999 0.7065 1.1099999999999999 L 0.20400000000000001 1.1099999999999999 Q 0.165 1.1099999999999999 0.13875 1.0837499999999998 Q 0.1125 1.0574999999999999 0.1125 1.0185 L 0.1125 0.15149999999999986 Q 0.1125 0.11249999999999982 0.13875 0.08624999999999994 Q 0.165 0.05999999999999983 0.20400000000000001 0.05999999999999983 M 0.9840102539062501 0.3074999999999999 Q 1.01251025390625 0.3074999999999999 1.03651025390625 0.32174999999999987 Q 1.06051025390625 0.33599999999999985 1.07251025390625 0.3644999999999998 L 1.29301025390625 0.8684999999999998 L 1.26001025390625 0.8834999999999998 L 1.4850102539062502 0.3659999999999999 Q 1.51051025390625 0.3059999999999998 1.56451025390625 0.30899999999999983 Q 1.6020102539062502 0.30899999999999983 1.6252602539062502 0.3322499999999998 Q 1.6485102539062502 0.3554999999999998 1.6485102539062502 0.3899999999999999 Q 1.6485102539062502 0.40049999999999986 1.64476025390625 0.41249999999999987 Q 1.6410102539062499 0.4244999999999999 1.6365102539062502 0.43499999999999983 L 1.3560102539062502 1.053 Q 1.33201025390625 1.107 1.27951025390625 1.1099999999999999 Q 1.25101025390625 1.1144999999999998 1.22476025390625 1.0995 Q 1.19851025390625 1.0844999999999998 1.18501025390625 1.053 L 0.90601025390625 0.43499999999999983 Q 0.90301025390625 0.4274999999999999 0.89926025390625 0.41549999999999987 Q 0.89551025390625 0.40349999999999986 0.89551025390625 0.3869999999999999 Q 0.89551025390625 0.3599999999999999 0.9195102539062501 0.3337499999999999 Q 0.94351025390625 0.3074999999999999 0.9840102539062501 0.3074999999999999 M 2.1690205078125 1.1249999999999998 Q 2.0415205078125 1.1249999999999998 1.9477705078125 1.07175 Q 1.8540205078125 1.0185 1.8037705078125001 0.9269999999999998 Q 1.7535205078125 0.8354999999999999 1.7535205078125 0.7199999999999999 Q 1.7535205078125 0.5849999999999999 1.8082705078125 0.4897499999999999 Q 1.8630205078125 0.39449999999999985 1.9515205078125 0.3434999999999998 Q 2.0400205078125 0.29249999999999987 2.1390205078125 0.29249999999999987 Q 2.2155205078125 0.29249999999999987 2.2837705078125 0.32399999999999984 Q 2.3520205078125 0.3554999999999998 2.4045205078125003 0.4102499999999999 Q 2.4570205078125 0.46499999999999986 2.4877705078125 0.5369999999999998 Q 2.5185205078125 0.6089999999999999 2.5185205078125 0.69 Q 2.5170205078125 0.7259999999999999 2.4900205078125 0.7484999999999999 Q 2.4630205078125 0.7709999999999999 2.4270205078125002 0.7709999999999999 L 1.8540205078125 0.7709999999999999 L 1.8090205078125001 0.6209999999999999 L 2.3595205078125 0.6209999999999999 L 2.3265205078125 0.6509999999999998 L 2.3265205078125 0.6104999999999998 Q 2.3235205078125 0.5669999999999998 2.2957705078125 0.5324999999999999 Q 2.2680205078125 0.4979999999999999 2.2267705078125 0.4777499999999999 Q 2.1855205078125 0.4574999999999999 2.1390205078125 0.4574999999999999 Q 2.0940205078125 0.4574999999999999 2.0550205078125 0.4694999999999999 Q 2.0160205078125 0.4814999999999998 1.9875205078125 0.5099999999999999 Q 1.9590205078125 0.5384999999999999 1.9425205078125 0.5864999999999999 Q 1.9260205078125001 0.6344999999999998 1.9260205078125001 0.7079999999999999 Q 1.9260205078125001 0.7889999999999999 1.9597705078125 0.8452499999999998 Q 1.9935205078125 0.9014999999999999 2.0467705078125 0.9307499999999999 Q 2.1000205078125003 0.9599999999999999 2.1600205078125 0.9599999999999999 Q 2.2155205078125 0.9599999999999999 2.2485205078125 0.9509999999999998 Q 2.2815205078125 0.9419999999999998 2.3017705078125 0.9292499999999999 Q 2.3220205078125 0.9164999999999999 2.3385205078125 0.9074999999999999 Q 2.3655205078125 0.8939999999999999 2.3895205078125 0.8939999999999999 Q 2.4225205078125 0.8939999999999999 2.4442705078125 0.9164999999999999 Q 2.4660205078125 0.9389999999999998 2.4660205078125 0.9689999999999999 Q 2.4660205078125 1.0094999999999998 2.4240205078125 1.0425 Q 2.3850205078125 1.0755 2.3145205078125 1.10025 Q 2.2440205078125 1.1249999999999998 2.1690205078125 1.1249999999999998 M 3.112546142578125 0.29249999999999987 Q 3.223546142578125 0.29249999999999987 3.281296142578125 0.33899999999999986 Q 3.339046142578125 0.38549999999999984 3.360796142578125 0.4627499999999999 Q 3.382546142578125 0.5399999999999998 3.382546142578125 0.6344999999999998 L 3.382546142578125 1.0185 Q 3.382546142578125 1.0574999999999999 3.357046142578125 1.0837499999999998 Q 3.3315461425781248 1.1099999999999999 3.292546142578125 1.1099999999999999 Q 3.253546142578125 1.1099999999999999 3.228046142578125 1.0837499999999998 Q 3.202546142578125 1.0574999999999999 3.202546142578125 1.0185 L 3.202546142578125 0.6344999999999998 Q 3.202546142578125 0.5849999999999999 3.1897961425781247 0.5452499999999999 Q 3.177046142578125 0.5054999999999998 3.1440461425781248 0.4814999999999998 Q 3.111046142578125 0.4574999999999999 3.0495461425781247 0.4574999999999999 Q 2.989546142578125 0.4574999999999999 2.948296142578125 0.4814999999999998 Q 2.907046142578125 0.5054999999999998 2.8852961425781247 0.5452499999999999 Q 2.863546142578125 0.5849999999999999 2.863546142578125 0.6344999999999998 L 2.863546142578125 1.0185 Q 2.863546142578125 1.0574999999999999 2.8380461425781247 1.0837499999999998 Q 2.812546142578125 1.1099999999999999 2.773546142578125 1.1099999999999999 Q 2.734546142578125 1.1099999999999999 2.709046142578125 1.0837499999999998 Q 2.683546142578125 1.0574999999999999 2.683546142578125 1.0185 L 2.683546142578125 0.3989999999999999 Q 2.683546142578125 0.3599999999999999 2.709046142578125 0.3337499999999999 Q 2.734546142578125 0.3074999999999999 2.773546142578125 0.3074999999999999 Q 2.812546142578125 0.3074999999999999 2.8380461425781247 0.3337499999999999 Q 2.863546142578125 0.3599999999999999 2.863546142578125 0.3989999999999999 L 2.863546142578125 0.4634999999999999 L 2.841046142578125 0.45899999999999985 Q 2.854546142578125 0.4334999999999999 2.880046142578125 0.4042499999999999 Q 2.905546142578125 0.3749999999999999 2.940046142578125 0.3494999999999998 Q 2.974546142578125 0.32399999999999984 3.018046142578125 0.3082499999999999 Q 3.061546142578125 0.29249999999999987 3.112546142578125 0.29249999999999987 M 3.60155859375 0.3224999999999999 L 3.9570585937500002 0.3224999999999999 Q 3.99305859375 0.3224999999999999 4.01705859375 0.3464999999999998 Q 4.04105859375 0.37049999999999983 4.04105859375 0.40649999999999986 Q 4.04105859375 0.44099999999999984 4.01705859375 0.46424999999999983 Q 3.99305859375 0.4874999999999998 3.9570585937500002 0.4874999999999998 L 3.60155859375 0.4874999999999998 Q 3.56555859375 0.4874999999999998 3.54155859375 0.4634999999999999 Q 3.51755859375 0.4394999999999999 3.51755859375 0.40349999999999986 Q 3.51755859375 0.3689999999999999 3.54155859375 0.3457499999999999 Q 3.56555859375 0.3224999999999999 3.60155859375 0.3224999999999999 M 3.76205859375 0.1349999999999999 Q 3.80105859375 0.1349999999999999 3.82580859375 0.1612499999999999 Q 3.85055859375 0.1874999999999999 3.85055859375 0.2264999999999998 L 3.85055859375 0.8939999999999999 Q 3.85055859375 0.9149999999999998 3.85880859375 0.9284999999999999 Q 3.86705859375 0.9419999999999998 3.88130859375 0.9479999999999998 Q 3.89555859375 0.9539999999999998 3.91205859375 0.9539999999999998 Q 3.93005859375 0.9539999999999998 3.9450585937500002 0.9472499999999999 Q 3.96005859375 0.9404999999999999 3.97955859375 0.9404999999999999 Q 4.00055859375 0.9404999999999999 4.01780859375 0.9599999999999999 Q 4.03505859375 0.9794999999999998 4.03505859375 1.0139999999999998 Q 4.03505859375 1.0559999999999998 3.98930859375 1.083 Q 3.94355859375 1.1099999999999999 3.89105859375 1.1099999999999999 Q 3.85955859375 1.1099999999999999 3.82130859375 1.10475 Q 3.78305859375 1.0995 3.74930859375 1.0792499999999998 Q 3.71555859375 1.059 3.69305859375 1.017 Q 3.67055859375 0.9749999999999999 3.67055859375 0.9014999999999999 L 3.67055859375 0.2264999999999998 Q 3.67055859375 0.1874999999999999 3.69680859375 0.1612499999999999 Q 3.7230585937500003 0.1349999999999999 3.76205859375 0.1349999999999999 M 4.290053466796875 0.7394999999999998 Q 4.251053466796876 0.7394999999999998 4.2248034667968755 0.7139999999999999 Q 4.198553466796875 0.6884999999999999 4.198553466796875 0.6494999999999999 Q 4.198553466796875 0.6104999999999998 4.2248034667968755 0.5857499999999999 Q 4.251053466796876 0.5609999999999998 4.290053466796875 0.5609999999999998 L 4.551053466796875 0.5609999999999998 Q 4.590053466796875 0.5609999999999998 4.616303466796875 0.5872499999999998 Q 4.642553466796875 0.6134999999999999 4.642553466796875 0.6524999999999999 Q 4.642553466796875 0.69 4.616303466796875 0.7147499999999999 Q 4.590053466796875 0.7394999999999998 4.551053466796875 0.7394999999999998 L 4.290053466796875 0.7394999999999998 M 5.230547607421875 0.2954999999999999 L 4.906547607421875 1.0574999999999999 Q 4.896047607421875 1.0859999999999999 4.874297607421875 1.1017499999999998 Q 4.852547607421875 1.1175 4.827047607421875 1.1175 Q 4.786547607421875 1.1175 4.767047607421875 1.095 Q 4.7475476074218745 1.0724999999999998 4.7475476074218745 1.0394999999999999 Q 4.7475476074218745 1.0259999999999998 4.752047607421875 1.011 L 5.125547607421875 0.11399999999999988 Q 5.137547607421875 0.08399999999999985 5.162297607421875 0.0674999999999999 Q 5.187047607421875 0.050999999999999934 5.2155476074218745 0.053999999999999826 Q 5.242547607421875 0.053999999999999826 5.265797607421875 0.06974999999999976 Q 5.289047607421875 0.08549999999999991 5.299547607421875 0.11399999999999988 L 5.668547607421875 0.9929999999999999 Q 5.676047607421875 1.0125 5.676047607421875 1.029 Q 5.676047607421875 1.0695 5.649797607421875 1.0935 Q 5.623547607421875 1.1175 5.592047607421875 1.1175 Q 5.565047607421874 1.1175 5.5432976074218745 1.101 Q 5.521547607421875 1.0844999999999998 5.509547607421875 1.0559999999999998 L 5.187047607421875 0.3044999999999999 L 5.230547607421875 0.2954999999999999 M 4.953047607421875 0.8744999999999998 L 5.035547607421875 0.7019999999999998 L 5.440547607421875 0.7019999999999998 L 5.469047607421875 0.8744999999999998 L 4.953047607421875 0.8744999999999998 M 5.998513183593749 1.0185 Q 5.998513183593749 1.0574999999999999 5.97226318359375 1.0837499999999998 Q 5.94601318359375 1.1099999999999999 5.907013183593749 1.1099999999999999 Q 5.8695131835937495 1.1099999999999999 5.844013183593749 1.0837499999999998 Q 5.818513183593749 1.0574999999999999 5.818513183593749 1.0185 L 5.818513183593749 0.09149999999999991 Q 5.818513183593749 0.05249999999999977 5.8447631835937495 0.026249999999999885 Q 5.87101318359375 -2.220446049250313e-16 5.910013183593749 -2.220446049250313e-16 Q 5.94901318359375 -2.220446049250313e-16 5.97376318359375 0.026249999999999885 Q 5.998513183593749 0.05249999999999977 5.998513183593749 0.09149999999999991 L 5.998513183593749 1.0185 M 6.41854248046875 1.0185 Q 6.41854248046875 1.0574999999999999 6.3922924804687495 1.0837499999999998 Q 6.366042480468749 1.1099999999999999 6.327042480468749 1.1099999999999999 Q 6.289542480468749 1.1099999999999999 6.264042480468749 1.0837499999999998 Q 6.238542480468749 1.0574999999999999 6.238542480468749 1.0185 L 6.238542480468749 0.09149999999999991 Q 6.238542480468749 0.05249999999999977 6.264792480468749 0.026249999999999885 Q 6.291042480468749 -2.220446049250313e-16 6.330042480468749 -2.220446049250313e-16 Q 6.3690424804687495 -2.220446049250313e-16 6.39379248046875 0.026249999999999885 Q 6.41854248046875 0.05249999999999977 6.41854248046875 0.09149999999999991 L 6.41854248046875 1.0185 M 7.216549804687499 0.3074999999999999 Q 7.255549804687499 0.3074999999999999 7.281049804687499 0.3337499999999999 Q 7.306549804687499 0.3599999999999999 7.306549804687499 0.3989999999999999 L 7.306549804687499 1.0365 Q 7.306549804687499 1.1744999999999999 7.254799804687499 1.2562499999999999 Q 7.203049804687499 1.3379999999999999 7.116049804687499 1.3739999999999999 Q 7.029049804687499 1.41 6.921049804687499 1.41 Q 6.873049804687499 1.41 6.8190498046874986 1.4024999999999999 Q 6.765049804687499 1.395 6.730549804687499 1.38 Q 6.685549804687499 1.3604999999999998 6.668299804687499 1.3312499999999998 Q 6.651049804687499 1.3019999999999998 6.661549804687499 1.269 Q 6.675049804687499 1.2254999999999998 6.705049804687499 1.2097499999999999 Q 6.735049804687499 1.194 6.768049804687499 1.206 Q 6.792049804687499 1.2134999999999998 6.831049804687499 1.22925 Q 6.870049804687499 1.2449999999999999 6.921049804687499 1.2449999999999999 Q 6.990049804687499 1.2449999999999999 7.035799804687499 1.2262499999999998 Q 7.081549804687499 1.2074999999999998 7.104799804687499 1.16325 Q 7.128049804687499 1.1189999999999998 7.128049804687499 1.0425 L 7.128049804687499 0.9419999999999998 L 7.159549804687499 0.9779999999999999 Q 7.134049804687499 1.0274999999999999 7.095799804687499 1.05975 Q 7.057549804687499 1.0919999999999999 7.0050498046874985 1.1084999999999998 Q 6.952549804687499 1.1249999999999998 6.885049804687499 1.1249999999999998 Q 6.805549804687499 1.1249999999999998 6.746299804687499 1.08825 Q 6.687049804687499 1.0514999999999999 6.6540498046874985 0.9862499999999998 Q 6.621049804687499 0.9209999999999998 6.621049804687499 0.8369999999999999 L 6.621049804687499 0.3989999999999999 Q 6.621049804687499 0.3599999999999999 6.646549804687499 0.3337499999999999 Q 6.672049804687499 0.3074999999999999 6.711049804687499 0.3074999999999999 Q 6.750049804687499 0.3074999999999999 6.775549804687499 0.3337499999999999 Q 6.801049804687499 0.3599999999999999 6.801049804687499 0.3989999999999999 L 6.801049804687499 0.7829999999999999 Q 6.801049804687499 0.8804999999999998 6.843799804687499 0.9202499999999999 Q 6.886549804687499 0.9599999999999999 6.963049804687499 0.9599999999999999 Q 7.015549804687499 0.9599999999999999 7.0515498046874985 0.9397499999999999 Q 7.087549804687499 0.9194999999999999 7.107049804687499 0.8797499999999998 Q 7.126549804687499 0.8399999999999999 7.126549804687499 0.7829999999999999 L 7.126549804687499 0.3989999999999999 Q 7.126549804687499 0.3599999999999999 7.152049804687499 0.3337499999999999 Q 7.177549804687499 0.3074999999999999 7.216549804687499 0.3074999999999999" fill="#f02e65" fill-rule="nonzero"></path></g><g></g><g clip-path="url(&quot;#SvgjsClipPath1001&quot;)"><g clip-path="url(&quot;#SvgjsClipPath1000&quot;)"><path d=" M 9.47901709189556 -0.13385689413057367 C 9.370301288912058 -0.24256898035201868 9.194042088056273 -0.24256898035201868 9.085326285072773 -0.1338568941305736 L 8.593225018681403 0.3581627580133503 C 8.541020530897976 0.41036723753995186 8.51169235435195 0.4811717111983935 8.51169235435195 0.5549999999999999 C 8.51169235435195 0.628828288801606 8.541020530897976 0.6996327624600477 8.593225018681403 0.7518372419866495 L 8.731006191217212 0.8895857688234797 L 8.849069361570429 0.7715225984702633 L 8.71127186618513 0.6337414259344553 C 8.690388669677859 0.6128610406076572 8.678656375694212 0.5845394734131562 8.678656375694212 0.5550081614247444 C 8.678656375694212 0.5254768494363327 8.690388669677859 0.4971552822418315 8.71127186618513 0.47627489691503344 L 9.203422101124966 -0.01582636947633506 C 9.246912902311141 -0.05930654340104646 9.317414151807702 -0.05930654340104646 9.360904952993877 -0.015826369476335034 L 9.853006219385245 0.47627489691503333 C 9.873889415892517 0.4971552822418315 9.885621709876165 0.5254768494363327 9.885621709876165 0.5550081614247444 C 9.885621709876165 0.5845394734131562 9.873889415892517 0.6128610406076572 9.853006219385245 0.6337414259344553 L 9.360904952993877 1.1258426923258238 C 9.317414151807702 1.1693228662505355 9.246912902311141 1.1693228662505355 9.203422101124966 1.1258426923258238 L 9.065640928589158 0.988045196940527 L 8.947528789687475 1.1061573358422097 L 9.085326285072773 1.2439385083780183 C 9.194042088056273 1.3526505945994627 9.370301288912058 1.3526505945994627 9.47901709189556 1.2439385083780183 L 9.971118358286928 0.7518372419866497 C 10.023322846070355 0.699632762460048 10.052651022616383 0.6288282888016065 10.052651022616383 0.555 C 10.052651022616383 0.48117171119839386 10.023322846070355 0.4103672375399521 9.971118358286928 0.3581627580133505 Z" fill="#f02e65" transform="matrix(1,0,0,1,0,0)" fill-rule="nonzero"></path></g><g clip-path="url(&quot;#SvgjsClipPath1000&quot;)"><path d=" M 9.203422101124966 0.7518372419866495 C 9.255626588908394 0.6996327624600479 9.28495476545442 0.6288282888016061 9.28495476545442 0.5549999999999999 C 9.28495476545442 0.48117171119839364 9.255626588908394 0.41036723753995186 9.203422101124966 0.3581627580133503 L 9.065640928589158 0.2203489397785644 L 8.947528789687475 0.3384447558307586 L 9.085326285072773 0.4762422512160557 C 9.106209481580045 0.4971226365428537 9.117941775563692 0.5254442037373549 9.117941775563692 0.5549755157257666 C 9.117941775563692 0.5845068277141784 9.106209481580045 0.6128283949086796 9.085326285072773 0.6337087802354775 L 8.593225018681403 1.1258426923258238 C 8.572344633354605 1.146725888833096 8.544023066160104 1.1584581828167435 8.514491754171694 1.1584581828167435 C 8.484960442183281 1.1584581828167435 8.45663887498878 1.146725888833096 8.435758489661982 1.1258426923258238 L 7.9436572232706135 0.6337414259344554 C 7.922774026763341 0.6128610406076572 7.911041732779694 0.5845394734131562 7.911041732779694 0.5550081614247444 C 7.911041732779694 0.5254768494363327 7.922774026763341 0.4971552822418315 7.9436572232706135 0.47627489691503344 L 8.435758489661982 -0.01582636947633506 C 8.45663887498878 -0.036709565983607306 8.484960442183281 -0.04844185996725456 8.514491754171694 -0.04844185996725456 C 8.544023066160104 -0.04844185996725456 8.572344633354605 -0.036709565983607306 8.593225018681403 -0.01582636947633506 L 8.731006191217212 0.12195480305947304 L 8.849069361570429 0.003842664157789888 L 8.711320834733598 -0.13385689413057367 C 8.659116355206995 -0.18606138191400112 8.588311881548554 -0.21538955846002747 8.514483592746949 -0.21538955846002747 C 8.440655303945341 -0.21538955846002747 8.3698508302869 -0.1860613819140011 8.317646350760299 -0.13385689413057372 L 7.825626698616375 0.3581627580133503 C 7.773422210832948 0.41036723753995175 7.744094034286921 0.4811717111983935 7.744094034286921 0.5549999999999999 C 7.744094034286921 0.628828288801606 7.773422210832948 0.6996327624600478 7.825626698616374 0.7518372419866495 L 8.317646350760299 1.2439385083780183 C 8.3698508302869 1.296142996161446 8.440655303945341 1.3254711727074717 8.514483592746949 1.3254711727074717 C 8.588311881548554 1.3254711727074717 8.659116355206995 1.2961429961614455 8.711320834733598 1.2439385083780183 Z" fill="#f02e65" transform="matrix(1,0,0,1,0,0)" fill-rule="nonzero"></path></g></g></g><defs><clipPath id="SvgjsClipPath1001"><path d=" M 7.744012451171873 -0.21547114157507552 h 2.308638540312113 v 1.540942283150151 h -2.308638540312113 Z"></path></clipPath><clipPath id="SvgjsClipPath1000"><path d=" M 7.744012451171873 -0.21547114157507552 L 10.052650991483986 -0.21547114157507552 L 10.052650991483986 1.3254711415750755 L 7.744012451171873 1.3254711415750755 Z"></path></clipPath></defs></svg>